<svg xmlns="http://www.w3.org/2000/svg" viewBox="0 0 50 50" width="50px" height="50px" fill="#ffffff">
  <path d="M9 4C6.25 4 4 6.25 4 9v32c0 2.75 2.25 5 5 5h32c2.75 0 5-2.25 5-5V9c0-2.75-2.25-5-5-5H9zm0 2h32c1.66 0 3 1.34 3 3v32c0 1.66-1.34 3-3 3H9c-1.66 0-3-1.34-3-3V9c0-1.66 1.34-3 3-3zM14 11c-1.1 0-2 .9-2 2s.9 2 2 2c1.1 0 2-.9 2-2s-.9-2-2-2zm-2 8h4v17h-4V19zm6 0h4v2.24c.59-.86 2.06-2.24 4.3-2.24 3.13 0 5.7 2.24 5.7 7.15V36h-4v-8.4c0-2.02-.74-3.4-2.59-3.4-1.41 0-2.25.95-2.62 1.88-.14.34-.18.82-.18 1.3V36h-4V19z"/>
</svg>
